<?xml version="1.0" encoding="UTF-8"?>
<svg id="Ebene_2" data-name="Ebene 2" xmlns="http://www.w3.org/2000/svg" viewBox="0 0 968.55 55.54">
  <defs>
    <style>
      .cls-1 {
        fill: #33474d;
        fill-rule: evenodd;
        stroke-width: 0px;
      }
    </style>
  </defs>
  <g id="Layer_1" data-name="Layer 1">
    <g>
      <path class="cls-1" d="M453.13,11.72c7.59-12.23,27.27,5.1,34.21,13.82,5.97-9.94,21.77-34.52,30.57-15.06,2.4,5.31,2.03,10.32,0,14.98h20.59c.39-.16.85-.16,1.32,0h72.07c.07-.19.17-.37.3-.52-.39-.78-.3-1.76.69-2.27C641.17,8.06,671.69.42,703.52,0c1.93-.02,2.34,2.43.92,3.41-15.58,10.9-32.79,18.25-50.84,22.06h23.32c.4-.16.85-.16,1.32,0h72.07c.06-.19.16-.37.29-.52-.39-.78-.3-1.76.69-2.27C779.59,8.06,810.11.42,841.94,0c1.93-.02,2.34,2.43.92,3.41-15.58,10.9-32.79,18.25-50.85,22.06h23.33c.39-.16.85-.16,1.32,0h94.22c.05-.35.21-.7.59-1,9.67-7.64,20.45-13.44,32.45-16.45,5.27-1.32,20.37-5.39,23.97,1.1,3.4,6.14-7.27,13.39-11.41,15.16-1.95.83-4.03,1.47-6.14,2.02,8.04,2.23,13.21,6.27,9.68,13.38-3.68,7.43-15.11,7.51-21.92,6.35-10.89-1.85-22.04-7.58-29.24-16-.25-.29-.35-.6-.41-.91h-59.55c17.36,3.06,33.8,8.94,47.44,21.6,1.15,1.06.28,3.18-1.29,3.13-14.56-.48-29.45-.97-43.42-5.54-11.48-3.76-20.84-11.2-31.28-16.92-.08-.02-.16-.03-.24-.05-.48-.08-.78-.33-1-.61-.98-.52-1.97-1.01-2.97-1.49-.02,0-.04-.02-.07-.03-.05-.02-.1-.06-.16-.08h-105.44c17.36,3.06,33.8,8.94,47.45,21.6,1.15,1.06.28,3.18-1.29,3.13-14.56-.48-29.45-.97-43.42-5.54-11.49-3.76-20.85-11.2-31.28-16.92-.09-.02-.16-.03-.24-.05-.48-.08-.79-.33-1-.61-.98-.52-1.97-1.01-2.97-1.49-.02,0-.05-.02-.07-.03-.06-.02-.1-.06-.16-.08h-105.44c17.36,3.06,33.8,8.94,47.45,21.6,1.15,1.06.27,3.18-1.29,3.13-14.56-.48-29.45-.97-43.42-5.54-11.49-3.76-20.85-11.2-31.28-16.92-.08-.02-.16-.03-.24-.05-.48-.08-.79-.33-1-.61-.98-.52-1.98-1.01-2.97-1.49-.02-.01-.05-.02-.07-.03-.06-.02-.11-.06-.16-.08h-23.15c-7.43,11.57-24.35,20.66-32.88,26.12-.64.41-1.25.33-1.73.03-.62.28-1.37.28-2.02-.27-8.67-7.36-17.7-15.13-23.02-25.39-2.32-4.45-6.23-12.95-3.14-17.92M587.87,42.96s.02-.05.02-.08c-.82-.28-1.63-.52-2.45-.79,0,.1-.02.21-.04.32.82.19,1.64.38,2.47.55ZM559.35,34.77c-.23-.05-.45-.11-.67-.16.25.08.51.16.76.24-.04-.02-.06-.05-.09-.08ZM647.38,15.43c5.22-1.15,10.44-2.3,15.66-3.45-.41-.16-.72-.46-.92-.83-4.95,1.27-9.86,2.73-14.75,4.29ZM627.73,19.76h0s0,0,0,0c0,0,0,0,0,0ZM696.62,4.07c.07-.04.14-.08.2-.12-.09,0-.19,0-.27.01.02.04.06.07.07.11ZM626.59,23.76c-1.51.33-3.01.66-4.52.99,1.77.03,3.53.07,5.29.04-.4-.26-.66-.6-.77-1.04ZM726.29,42.96s.02-.05.02-.08c-.82-.28-1.63-.52-2.45-.79,0,.1-.02.21-.03.32.82.19,1.64.38,2.46.55ZM697.77,34.77c-.23-.05-.45-.11-.67-.16.25.08.51.16.76.24-.03-.02-.05-.05-.08-.08ZM785.79,15.43c5.22-1.15,10.44-2.3,15.67-3.45-.41-.16-.72-.46-.92-.83-4.95,1.27-9.86,2.73-14.75,4.29ZM766.15,19.76h0,0ZM835.05,4.07c.06-.04.13-.08.2-.12-.09,0-.18,0-.27.01.02.04.06.07.07.11ZM765.01,23.76c-1.51.33-3.01.66-4.52.99,1.77.03,3.53.07,5.29.04-.4-.26-.66-.6-.77-1.04ZM864.71,42.96s.02-.05.02-.08c-.81-.28-1.63-.52-2.44-.79,0,.1-.02.21-.04.32.82.19,1.64.38,2.46.55ZM836.19,34.77c-.23-.05-.44-.11-.67-.16.25.08.5.16.75.24-.03-.02-.06-.05-.08-.08ZM938.06,24.23c4.37-.4,9.65-.99,14.01-2.29,1.81-.72,3.63-1.44,5.43-2.16,3.65-7.5,3.23-10.86-1.26-10.08-6.12-1.16-15.67,2.89-21.3,5.12-6.05,2.41-11.53,5.49-16.76,9.18,4.9-.28,12.32-.39,19.65.24.07,0,.14,0,.22-.01ZM924.7,37.59c5.81,2.89,16.53,7.6,23.05,4.96,3.76.42,4.83-1.64,3.21-6.17,2.15-4.25,1.45-6.35-2.07-6.31-2.21-1.55-7.79-1.39-10.32-1.74-.23-.04-.44-.05-.66-.08-4.14.28-8.3.29-12.35.17v.73h-12.51c3.37,3.49,7.24,6.25,11.65,8.45ZM852.62,44.79c6.93,2.3,14.12,3.53,21.37,4.25-4.06-.76-8.1-1.6-12.13-2.52-.29.12-.61.19-.97.14-6.18-.84-11.8-3.22-17.29-5.99-.31-.08-.61-.17-.92-.25,3.18,1.69,6.45,3.21,9.94,4.36ZM714.2,44.79c6.93,2.3,14.11,3.53,21.37,4.25-4.06-.76-8.1-1.6-12.13-2.52-.29.12-.6.19-.97.14-6.18-.84-11.8-3.22-17.29-5.99-.31-.08-.61-.17-.92-.25,3.17,1.69,6.44,3.21,9.94,4.36ZM575.77,44.79c6.93,2.3,14.12,3.53,21.38,4.25-4.06-.76-8.1-1.6-12.12-2.52-.3.12-.61.19-.98.14-6.19-.84-11.81-3.22-17.29-5.99-.31-.08-.62-.17-.92-.25,3.17,1.69,6.45,3.21,9.94,4.36ZM460.34,29.39c5.05,9.06,13.23,15.98,21.04,22.61,8.75-5.6,19.25-10.94,26.32-18.69,2.8-2.62,4.75-5.73,5.85-9.32,4.28-7.36-.86-10.45-15.44-9.27-3.61,2.47-6.77,11.27-9.02,15.05-.71,1.21-2.44,1.17-3.16,0-3.83-6.16-8.5-11.1-15.07-14.41-6.31-4.76-10.97-2.73-13.99,6.07.8,2.83,1.97,5.48,3.48,7.96Z"/>
      <path class="cls-1" d="M.52,9.12c2.92-6.61,19.28-2.27,23.97-1.1,12,3.01,22.78,8.81,32.45,16.45.38.3.54.65.58,1h94.22c.47-.16.93-.16,1.33,0h23.32c-18.06-3.81-35.26-11.15-50.84-22.06-1.41-.99-1.01-3.44.92-3.41,31.83.42,62.35,8.06,90.64,22.68.99.52,1.08,1.5.69,2.27.12.15.23.33.29.52h72.07c.47-.16.93-.16,1.32,0h23.33c-18.06-3.81-35.25-11.15-50.85-22.06-1.41-.99-1.01-3.44.92-3.41,31.84.42,62.35,8.06,90.64,22.68,1,.52,1.08,1.5.69,2.27.13.15.23.33.29.52h72.07c.47-.16.93-.16,1.32,0h24.21s0,3.67,0,3.67h-24.79c-.05.02-.1.05-.15.07-.02.02-.05.03-.07.04-1,.48-1.99.96-2.97,1.48-.21.29-.52.54-1,.62-.08.02-.16.04-.24.05-10.43,5.72-19.78,13.16-31.27,16.92-13.96,4.57-28.86,5.06-43.42,5.54-1.57.05-2.45-2.05-1.3-3.13,13.65-12.66,30.09-18.54,47.46-21.6h-105.45s-.1.05-.15.07c-.02.02-.05.03-.07.04-1,.48-2,.96-2.98,1.49-.21.29-.52.53-1,.61-.08.02-.16.04-.24.05-10.43,5.72-19.79,13.16-31.28,16.92-13.96,4.57-28.86,5.06-43.42,5.54-1.56.05-2.44-2.05-1.29-3.13,13.65-12.66,30.1-18.54,47.46-21.6h-105.45c-.05.02-.11.05-.15.07-.02.02-.05.03-.07.04-1.01.48-2,.96-2.97,1.49-.21.29-.52.53-1,.61-.09.02-.16.04-.24.05-10.43,5.72-19.79,13.16-31.28,16.92-13.96,4.57-28.86,5.06-43.42,5.54-1.56.05-2.44-2.05-1.29-3.13,13.65-12.66,30.09-18.54,47.45-21.6h-59.56c-.06.31-.16.62-.4.91-7.22,8.44-18.33,14.12-29.24,16-6.92,1.2-18.14,1.05-21.92-6.35-3.65-7.12,1.58-11.15,9.71-13.37-2.13-.56-4.21-1.19-6.18-2.03C7.27,22.29-2.33,15.59.52,9.12M106.16,42.41c-.02-.11-.03-.21-.03-.32-.82.26-1.64.51-2.45.79,0,.03.02.05.02.08.83-.17,1.64-.36,2.46-.55ZM132.22,34.77s-.05.06-.08.08c.26-.08.51-.16.76-.24-.23.05-.45.11-.68.16ZM167.87,11.15c-.2.38-.51.68-.91.84,5.21,1.15,10.44,2.3,15.65,3.45-4.88-1.56-9.79-3.02-14.74-4.29ZM203.41,23.76c-.12.44-.38.78-.77,1.04,1.76.03,3.52-.01,5.29-.04-1.51-.33-3.01-.66-4.52-.99ZM133.44,3.95c-.09,0-.18,0-.27-.01.07.04.13.09.2.12.02-.05.06-.07.08-.11ZM202.26,19.76h0,0ZM244.59,42.41c-.02-.11-.03-.21-.03-.32-.82.26-1.64.51-2.46.79,0,.03.02.05.02.08.83-.17,1.64-.36,2.47-.55ZM270.65,34.77s-.06.06-.09.08c.26-.08.51-.16.77-.24-.23.05-.45.11-.68.16ZM306.3,11.15c-.2.38-.51.68-.92.84,5.21,1.15,10.44,2.3,15.65,3.45-4.88-1.56-9.79-3.02-14.74-4.29ZM341.83,23.76c-.11.44-.37.78-.77,1.04,1.76.03,3.52-.01,5.29-.04-1.51-.33-3.01-.66-4.52-.99ZM271.86,3.95c-.08,0-.17,0-.27-.01.06.04.13.09.2.12.01-.05.05-.07.06-.11ZM340.68,19.76h0,0ZM383.01,42.41c-.02-.11-.03-.21-.04-.32-.82.26-1.64.51-2.45.79,0,.03.02.05.02.08.83-.17,1.64-.36,2.47-.55ZM409.07,34.77s-.06.06-.09.08c.26-.08.51-.16.77-.24-.23.05-.45.11-.68.16ZM402.38,40.48c-.24.07-.49.14-.73.2-5.48,2.77-11.1,5.15-17.29,5.99-.36.04-.68-.02-.97-.14-4.16.95-8.34,1.81-12.53,2.59,7.42-.7,14.76-1.93,21.78-4.33,3.41-1.16,6.62-2.65,9.74-4.31ZM263.95,40.48c-.24.07-.48.14-.73.2-5.49,2.77-11.11,5.15-17.28,5.99-.37.04-.68-.02-.98-.14-4.16.95-8.34,1.81-12.53,2.59,7.42-.7,14.75-1.93,21.78-4.33,3.41-1.16,6.63-2.65,9.74-4.31ZM125.54,40.48c-.24.07-.48.14-.72.2-5.48,2.77-11.11,5.15-17.29,5.99-.37.04-.69-.02-.98-.14-4.16.95-8.34,1.81-12.53,2.59,7.42-.7,14.75-1.93,21.78-4.33,3.41-1.16,6.63-2.65,9.74-4.31ZM19.53,30.06c-5.67,2.46-5.19,10.95,1.14,12.48,11.51,2.78,26.46-4.97,34.66-13.41h-12.48v-.73c-4.28.13-8.68.1-13.05-.23-3.46.35-8,.89-10.27,1.88ZM26.47,23.74c1.6.2,3.19.35,4.79.47,7.14-.56,14.31-.46,19.03-.2-4.32-3.07-8.85-5.77-13.72-7.96-3.87-1.74-20.32-8.84-24.4-6.36-2.79-.69-3.27.97-1.44,4.99-1.39,4.71.48,7.13,5.62,7.24,3.28,1,6.74,1.38,10.12,1.8Z"/>
    </g>
  </g>
</svg>