<?xml version="1.0" encoding="UTF-8"?>
<svg id="Ebene_2" data-name="Ebene 2" xmlns="http://www.w3.org/2000/svg" viewBox="0 0 298.85 701.64">
  <defs>
    <style>
      .cls-1 {
        fill: #33474d;
        fill-rule: evenodd;
        stroke-width: 0px;
      }
    </style>
  </defs>
  <g id="Layer_1" data-name="Layer 1">
    <path class="cls-1" d="M2.26,478.68c48.3,10.09,91.74,34.89,125,71.34.5.55.56,1.16.39,1.72,1.04.8.76,2.88-.83,3.25-.14.54-.51,1.01-1.22,1.18-.12.03-.25.07-.37.09,19.15,11.27,36.12,21.9,45.72,41.02-.5-13.57-.86-27.14-1.04-40.71-11.04-14.88-16.89-33.26-23.95-50.19-10.32-24.75-23.27-48.47-45.08-64.81-.99-.75-.93-1.98-.38-2.77-.05-.04-.11-.04-.16-.09-.26-.21-.5-.43-.75-.64-.23.02-.48,0-.75-.08-21.87-7-45.85-14.97-59.51-34.81-15.18-22.05-6.7-48.91-5.52-73.51.04-.76.46-1.25,1-1.52.78-.65,2.1-.77,2.84.31.35.51.74.99,1.09,1.49.9-1.07,2.84-1.15,3.11.55.26,1.66.6,3.3.91,4.94,6.87,9.03,14.52,17.34,23.24,24.71,8.98,7.58,18.67,13.74,25.75,23.35,11.49,15.62,15.38,34.78,12.51,53.76-.13.85-.69,1.25-1.32,1.31,19.63,14.8,31.73,34.39,42.06,56.46,8.47,18.08,13.91,38.16,24.81,55.01-.51-52.81,1.79-105.57,9.69-157.98.71-4.7,1.49-9.39,2.26-14.09-.87-.74-1.12-2.25.17-2.99.11-.07.23-.14.34-.2.5-2.98,1.02-5.94,1.54-8.9-4.55-13.23-16.73-25.18-27.64-36.09-.07-.02-.12,0-.19-.03-13.08-5.49-25.48-12.17-37.2-20.17-.1-.07-.14-.16-.23-.24-.26.07-.53.09-.84.03-18.88-3.46-36.94-9.25-54.34-17.31-1.49-.69-.97-2.94.44-3.35,13.32-3.87,32.71-8.82,46.1-2.6,8.16,3.8,12.36,11.75,9.79,20.02.3,0,.61.07.93.29,9.13,6.23,18.68,11.66,28.65,16.35-1.95-2.06-3.79-4.08-5.42-6.07-11.36-13.79-20.83-28.61-26.81-45.5-22.36-11.26-21.19-38.53-17.15-60.28.36-1.95,2.89-1.55,3.44,0,.2.1.39.26.57.48,9.45,12.06,17.18,26.24,22.46,40.65,3.14,8.56,3.4,15.82-4.8,20.68,7.8,20.45,20.96,37.43,35.48,53.55.5.24.82.63.97,1.07.32.35.64.7.96,1.05,3.04-4.82,4.22-10.1,3.64-15.74-5.98-1.32-9.81-9.52-11.59-14.5-3.37-9.42-2.9-19.47.77-28.71.86-2.16,4.4-1.22,3.53.98-2.19,5.51-3.32,11.22-2.86,17.17.23,2.82.82,5.67,1.7,8.36,1.93,5.9,2.19,7.6,8.29,8.22,6.95.72,4.65-.94,3.48-5.81-.72-3-1.62-5.99-2.53-8.94-2.1-6.76-4.62-13.36-7.44-19.84-.93-2.14,2.23-4,3.16-1.85,2.44,5.62,19.58,41.51,7.15,44.89.67,6.36-.82,12.57-4.31,17.96-.15.23-.33.41-.54.54.16.17.31.34.47.51,8.11,8.79,17.58,17.39,23,27.96,7.16-39.77,15.75-79.3,21.34-119.34,1.33-9.55,2.39-19.12,3.31-28.7-.22-.19-.43-.43-.56-.78-7.53-20.42-20.83-37.41-38.56-49.72-26.37-10.22-56.72-23.3-75.31-45.28-15.38-18.19-20.86-42.14-16.85-65.3-.53-.35-1.01-.74-1.54-1.08-1.98-1.27-.15-4.44,1.85-3.16.22.14.43.29.66.44,1.1-1,3.4-.04,3.01,1.85.94.58,1.84,1.26,2.71,2,20.69,14.31,38.61,31.86,55.65,50.38,14.56,15.82,34.47,33.22,33.36,56.59-.02.47-.21.82-.45,1.1.07.07.12.16.17.25,16.24,11.6,28.65,27.07,36.54,45.43,2.47-28.92,3.12-57.94,1.93-86.94-6.28-12.2-15.2-22.39-26.29-30.34-5.44,5.53-14.36-1.12-18.67-4.94-8.09-7.18-13.13-17.1-17.9-26.62-.31-.63-.23-1.22.04-1.7-.64-.29-1.25-.63-1.89-.91-2.16-.94-.29-4.1,1.84-3.16,11.1,4.88,23.36,10.8,32.21,19.32,3.44,3.31,7.6,9.54,6.21,14.68,9.66,6.87,17.75,15.45,23.99,25.47-.55-10.46-1.27-20.91-2.29-31.35-15.5-8.76-3.82-68.68-2.43-76.51.41-2.31,3.94-1.33,3.53.97-.02.1-.03.18-.04.28,12.59,8.62,21.12,21.39,23.46,36.59,1.91,12.39-.08,30.93-12.65,37.51-3.16,1.64-5.83,2.3-8.11,2.2,1.2,12.54,2.08,25.1,2.61,37.66.08.31.1.61.04.88.06,1.44.07,2.87.12,4.32.11-.1.26-.16.41-.23,3.55-11.12,13.43-21.09,21.13-29.55,8.84-9.71,18.69-17.89,30.84-23.09,1.75-.74,3.24.76,2.51,2.51-9.98,23.59-26.65,47.72-53.14,53.5-.71.16-1.27-.1-1.67-.51,1.15,37.08-.58,74.19-5.46,111.06-5.82,43.8-15.43,86.95-23.09,130.44.53,1.64.91,3.34,1.21,5.08,23.17-14.42,43.48-33.79,51.09-60.54-.23-.14-.45-.34-.62-.65-12.99-23.73-22.62-48.47-16.05-75.58,1.37-5.68,3.08-11.26,4.96-16.77-.05-.3.02-.58.25-.76,7.26-20.91,17.99-40.53,31.25-58.27,1.05-1.41,3.11-.72,3.46.51,12.1,5.81,15.91,18.13,18.88,30.42,4.93,20.39,10.51,41.14,13.93,61.83,4.89,29.58-26.94,50.18-52.03,58.3-7.5,29.17-29.55,50.18-54.62,65.52-.19,1-1.16,1.41-2.06,1.23-.52.31-1.04.61-1.56.92-.29,1.75-.61,3.51-.9,5.27-6.03,37.2-9.17,74.57-10.47,112.01,3.13-13.26,7.68-25.78,17.73-35.85,3.18-3.19,6.58-6.23,10.1-9.19-.93-.21-1.71-1.03-1.41-2.2,1.21-4.74,2.43-9.49,3.64-14.23-16.47-1.26-2.4-30.48,3.83-41.12-.07-.12-.12-.24-.2-.35-.97-1.56.7-2.98,2.09-2.63,1.38-1.61,4.27.12,3,2.01-.24.35-.42.73-.65,1.08,5.61,11.24,11.79,38.08-4.32,40.85,0,.12.02.25-.02.39-1.22,4.76-2.43,9.52-3.66,14.28,9.65-7.86,20.18-14.98,30.52-21.74-.81-.94-.26-2.69,1.06-2.98-.42-.5-.54-1.2,0-1.9,7.72-10.05,10.54-23,21.49-30.45,9.91-6.75,22.29-8.5,33.93-10.03.31-.24.61-.5.94-.74,1.89-1.41,3.72,1.77,1.85,3.17-13.42,10.01-21.44,23.36-33.1,34.88-5.97,5.9-13.03,9.46-21.03,9.11-14.49,9.52-28.96,19.53-41.87,31.05-2.66,2.37-4.88,4.91-6.93,7.51,4.74-1.63,10.47-2.19,13.85-3.12,19.57-5.38,39.15-10.76,58.73-16.15,1.16-.32,2.3.58,2.32,1.77.41,35.82-55.97,27.06-79.23,25.75-.29.81-1.04,1.23-1.8,1.25-4.92,9.56-7.46,20.21-9.65,31.45-.18.93-.87,1.31-1.59,1.3-.37,15.99-.43,31.99-.23,47.99.12.16.22.33.34.49.65.84.34,1.66-.32,2.15.24,16.4.73,32.8,1.4,49.21.12.39.27.77.4,1.18.19.63.03,1.15-.29,1.54.38,8.92.79,17.83,1.25,26.75,6.64-15.44,24.87-28.53,37.56-37.08-.1-.39-.04-.84.28-1.29.35-.5.76-.91,1.13-1.39-.64-48.49,33.74-75.73,72.44-97.86.03-.49.05-1,.08-1.48,0-.09.05-.15.07-.24-.09-.23-.16-.46-.24-.69-.81-2.22,2.73-3.18,3.53-.98,9.58,26.27,11.99,56.46-4.22,80.75-15.68,23.49-43.04,29.41-69.66,27.14-.69-.05-1.14-.42-1.43-.9-15.38,10.35-40.71,28.58-38.3,48.6.07.56-.09.99-.39,1.28.88,15.74,1.86,31.46,2.87,47.18.15,2.35-3.51,2.34-3.66,0-1.96-30.61-3.84-61.3-5.12-92-8.19-24.94-27.79-36.61-49.53-49.36-.5-.3-.76-.72-.85-1.16-14.2,3.81-29.78,9.32-44.21,7.72-13.86-1.54-29.98-7.44-42.08-14.38-24.7-14.16-30.18-41.87-33.7-67.96-.09-.23-.13-.47-.12-.7-1.71-.82-.75-3.8,1.38-3.35M97.33,402.28c-10.44,1.48-21.49,2.1-29.72-5.23,2.75,4.2,5.69,8.29,8.82,12.24.13-.17.33-.28.62-.25,7.66.77,15.31,1.54,22.97,2.31-.68-3.1-1.58-6.13-2.69-9.07ZM90.61,389.12c-8.89,3.57-18.25,3.96-27.3,1.05.95,1.62,1.92,3.22,2.92,4.81.26-.43.82-.68,1.27-.21,7.85,8.09,18.92,7.37,29.21,5.91-1.64-4.02-3.68-7.88-6.1-11.55ZM77.65,410.79c2.36,2.9,4.79,5.75,7.33,8.5,5.23,2.32,10.75,3.3,16.49,2.88-.15-3.09-.51-6.13-1.07-9.1-7.59-.76-15.17-1.53-22.75-2.29ZM100.95,434.45c.45-3.59.64-7.12.55-10.58-4.72.34-9.31-.21-13.72-1.65,4.15,4.27,8.55,8.35,13.17,12.23ZM37.2,333.87c-1.75,21.15-8.27,44.84,3.13,64.08,11.28,19.04,32.26,27.56,52.46,34.23-27.78-25.29-46.44-58.56-53.52-95.58-.69-.91-1.39-1.8-2.07-2.73ZM44.41,343.08c2.08,8.75,4.79,17.26,8.16,25.47,3.82-2.41,5.86-6.55,5.4-11.07-.02-.12.06-.18.08-.26-4.78-4.49-9.36-9.14-13.64-14.13ZM59.6,358.67c.05,4.7-2.28,9.02-6.34,11.48,1.04,2.46,2.14,4.91,3.3,7.31,4.48-2.71,8.42-6.09,11.61-10.27.22-.28.52-.33.81-.3-3.22-2.68-6.35-5.42-9.38-8.22ZM69.75,367.54c.02.16.02.33-.11.51-3.41,4.45-7.53,8.11-12.32,10.98.71,1.44,1.42,2.87,2.17,4.29.14-.2.34-.34.64-.33,7.25.1,13.87-2.39,19.29-7.15-1.7-1.6-3.44-3.16-5.31-4.65-1.5-1.19-2.9-2.43-4.37-3.64ZM80.65,377c-5.72,5.06-12.76,7.75-20.42,7.67.58,1.09,1.18,2.19,1.79,3.28,9.1,3.36,18.63,3.32,27.64-.25-2.61-3.78-5.63-7.35-9.01-10.7ZM90.29,287.53c-6.94.49-13.69,1.7-20.37,3.38,14.93,6.51,30.32,11.31,46.33,14.43,6.33-16.27-16.51-18.49-25.95-17.81ZM102.77,215.88c-3.23,19.61-3.73,44.06,17.77,53.04,11.65-9.85-9.64-42.14-17.77-53.04ZM111.71,126.06c1.7-6.54,1.25-12.68-.31-18.59-.93,5-2.88,9.88-5.64,13.76,1.93,1.72,3.88,3.43,5.95,5.04.01-.07-.01-.14.01-.2ZM103.81,119.55c.21.2.46.38.67.58,3.22-4.52,5.31-10.69,5.77-16.6-1.4-4-3.28-7.89-5.31-11.73-.4,7.64-3.76,14.77-6.56,21.92,1.72,2.01,3.47,3.99,5.43,5.83ZM97.11,112.36c3.07-7.68,6.64-15.4,6.11-23.79-1.02-1.86-2.05-3.71-3.06-5.54-.24-.44-.49-.92-.74-1.39-.11,8.71-2.26,17-6.61,24.64,1.35,2.07,2.72,4.14,4.3,6.08ZM86.41,94.18c4.16-8.19,6.36-16.87,6.54-26.09-1.08-2.16-2.22-4.3-3.44-6.31-.65,8-2.7,15.7-6.25,23,.84,3.21,1.89,6.34,3.15,9.41ZM94.43,71.14c-.59,8.85-2.93,17.3-7.16,25.18,1.29,2.88,2.77,5.68,4.43,8.39,4.39-8,6.47-16.63,6.11-25.8,0-.13.07-.2.12-.29-1.1-2.32-2.26-4.87-3.5-7.48ZM82.62,82c3.22-7.21,4.99-14.75,5.34-22.64-1.21-1.78-2.48-3.41-3.85-4.8-.81-.56-1.62-1.15-2.44-1.7-1.5,9.82-1.17,19.68.95,29.14ZM131.44,96.4c-11.86-12.55-24.28-24.39-37.81-34.94,4.35,7.46,7.67,16.03,11.02,22.11,2.19,3.99,4.32,7.98,6.18,12.01.35-.03.71.11.79.57.09.52.12,1.07.18,1.6,3.97,9.22,6.18,18.75,3.44,29.27-.16.59-.5.95-.93,1.14,15.41,11.42,33.83,20.06,51.43,27.12.51-.6,1.33-.91,2.2-.36.83.51,1.59,1.1,2.41,1.64.47-24.04-23.62-43.99-38.9-60.17ZM183.61,78.91c-.17-1.59-.8-2.96-1.9-4.1-1.02-1.51-2.21-2.74-3.58-3.93-3.03-2.65-6.45-4.88-9.84-7.03-4.71-3-9.63-5.59-14.63-8.02,2.38,4.72,4.82,9.44,7.78,13.82,2,2.97,4.22,5.85,6.79,8.35,1.46,1.43,3.05,2.81,4.73,3.98,3.17,2.21,3.52,2.43,7.61.88.48,0,.79-.08,1.18-.12.17-1.12,1.28-2.06,2.5-1.42.15-.63.02-1.39-.64-2.41ZM223.35,70.61c9.07-7.22,8.68-24.78,6.3-34.8-2.87-12.04-9.81-21.97-19.74-29.17-1.92,11.46-3.49,22.94-4.39,34.52-.52,6.7-4.31,47.07,17.83,29.45ZM265.58,74.35c-8.71,4.51-16.29,10.52-23.14,17.7-7.53,7.91-17.42,17.79-21.63,28.2,21.47-6.53,35.58-26,44.77-45.9ZM225.59,265.91c10.85-.58,20.29-7.55,23.9-17.87.06-.19.2-.28.33-.38.43-2.89.92-5.78,1.33-8.68-4.62,4.82-9.64,9.23-15.25,12.86-3.52,2.28-7.55,4.49-11.46,2.88.05,3.68.42,7.41,1.15,11.19ZM225.91,267.56c.1.43.15.84.26,1.27.56,2.27,1.29,4.49,1.98,6.72,7.59-1.16,14.16-5.51,18.18-12.12.27-.44.75-.47,1.11-.28.54-3.34,1.03-6.7,1.54-10.05-4.7,8.38-13.29,13.84-23.07,14.46ZM228.63,277.17c1,3.04,2.11,6.03,3.32,8.99,4.94-.04,9.46-2.35,12.22-6.55.16-.24.37-.34.59-.37.81-4.66,1.61-9.32,2.37-13.99-4.3,6.45-10.88,10.65-18.49,11.91ZM232.58,287.8c2.31,5.5,4.93,10.86,7.7,16.11,1.4-7.27,2.68-14.55,3.96-21.83-2.96,3.46-7.09,5.51-11.66,5.72ZM224.4,252.76c8.01,4.3,22.08-11.11,26.7-16.08.13-.14.28-.16.43-.19.51-3.64.94-7.29,1.42-10.93-7.85,5.89-16.71,9.68-26.5,11.03-.01,0-.02-.01-.03-.01-1.18,5.38-1.91,10.75-2.01,16.17ZM232.28,216.57c8.02.24,15.64-1.71,22.56-6.07.43-3.54.93-7.07,1.33-10.61-5.14,5.63-12.53,8.28-20.19,7.1-1.31,3.15-2.55,6.35-3.7,9.58ZM231.71,218.25c-.87,2.51-1.7,5.04-2.47,7.59-.91,3.01-1.7,5.99-2.39,8.96,9.74-1.48,18.65-5.28,26.38-11.46.47-3.6.91-7.19,1.35-10.8-7.01,4.15-14.78,6.06-22.87,5.71ZM244.01,189.91c4.68.3,9.01-1.55,11.92-5.31.67-.86,1.85.35,1.19,1.19-3.33,4.3-8.6,6.48-13.99,5.79-.01,0-.02-.01-.03-.01-2.32,4.51-4.44,9.13-6.43,13.82,7.54,1.04,14.95-1.98,19.55-8.12.06-.09.17-.1.26-.15,1.19-10.83,2.24-21.69,3.18-32.56-5.79,8.13-11.03,16.57-15.65,25.34ZM292.27,265.88c2.51-8.83-.96-19.06-2.92-27.67-3.07-13.46-6.13-26.92-9.19-40.37-2.83-12.44-5.19-27.27-16.72-34.44-4.05,47.54-10.62,94.76-19.65,141.61.15.1.26.23.38.37,12.19-4.11,23.4-10.22,32.96-19.01,5.95-5.47,12.89-12.58,15.14-20.49ZM212.68,424.56c.87-1.74,1.4-3.56,1.6-5.48.49-2.74.52-5.5.32-8.27-.41-5.5-1.98-10.56-4.42-15.35-2.14,3.59-4.12,7.27-5.67,11.18-.96,2.46-1.8,4.97-2.52,7.51-.48,1.7-.89,3.41-1.25,5.13-1.67,3.65-.32,5.81,4.04,6.47,3.34,3.89,5.97,3.49,7.9-1.2ZM270.24,400.51c4.71-5.8,9.92-10.99,15.57-15.76-9.28,1.37-18.81,3.43-26.52,8.75-10.25,7.09-12.92,19.67-20.18,29.14-.11.15-.25.23-.38.33.08.01.16.03.24.04,1.17-.76,2.35-1.53,3.52-2.29,1.54-1,2.97.67,2.62,2.08,11.04-2.2,18.19-13.72,25.14-22.29ZM258.27,456.43c2.95-5.9,1.56-7.22-4.17-3.94-3.56.98-7.12,1.95-10.68,2.93-5.34,1.47-10.68,2.94-16.02,4.4-4.69,1.3-28.54,5.82-37.19,10.31,19.94,1.56,66.74,6.6,68.06-13.7ZM254.18,568.78c1.76-1.24,3.57-2.57,5.4-3.96-.04-.02-.07,0-.1-.03-8.57-6.71-14.83-15.4-18.76-25.45-3.55,4.03-6.78,8.27-9.58,12.8,1.6,9.14,6.61,17,14.29,22.24,2.96-1.78,5.9-3.59,8.74-5.59ZM229.88,554.41c-2.15,3.73-4.07,7.62-5.63,11.73,0,6.19,2.8,11.87,7.86,15.51.21.15.3.34.34.55,3.72-2.37,7.57-4.59,11.42-6.87-7.13-5.09-12.05-12.41-13.99-20.92ZM222.92,570.22c-2.19,6.91-3.49,14.37-3.76,22.46,3.63-3.72,7.72-6.82,12.03-9.64-4.37-3.17-7.27-7.7-8.27-12.82ZM241.98,537.99c3.81,10.17,10.11,18.89,18.7,25.61.1.08.09.18.13.26,3.43-2.65,6.85-5.53,10.03-8.66-10.33-5.46-17.29-15.21-19.22-26.7-3.43,3.01-6.63,6.18-9.64,9.48ZM269.91,515.86c3.35,5.7,9.29,9.11,15.91,9.11.26,0,.46.11.6.26.41-3.19.66-6.44.81-9.72-3.58-.89-6.6-3-8.54-6.29-.07-.11-.02-.19-.04-.29-5.97,3.69-11.73,7.55-17.2,11.64,4.3,9.32,11.42,15.48,20.15,20.86.92-1.71,1.73-3.45,2.37-5.23,1.08-3.06,1.8-6.33,2.29-9.72-.12.09-.24.2-.44.2-7.21-.01-13.71-3.74-17.36-9.96-.55-.94.91-1.79,1.46-.85ZM260.08,521.61c-2.39,1.83-4.73,3.71-6.99,5.65,1.58,11.59,8.62,21.37,18.98,26.7,3.35-3.44,6.31-7.15,8.65-11.09-8.94-5.51-16.16-11.82-20.64-21.26ZM279.87,508.18c.09.07.2.08.26.2,1.63,2.77,4.15,4.64,7.16,5.45.13-3.47.21-6.92.33-10.27-2.61,1.52-5.2,3.05-7.76,4.62ZM286.18,571.05c11.5-19.85,10.83-42.82,4.82-64.15-1.13,18.64-2.49,35.16-16.77,49.73-7.73,7.89-16.63,14.65-26.03,20.42-10.49,6.44-21.43,11.58-29.22,21.29-.01.1-.02.19-.04.27.27.46.34,1.02.19,1.55,26.45,1.89,52.86-4.64,67.05-29.12ZM46.42,518.71c-4.19-7.4-6.05-15.69-5.34-24.36-5-2.03-10.09-3.9-15.25-5.58-.63,4.57-.51,9.07.37,13.53,6.49,5.76,13.24,11.23,20.23,16.41ZM107.42,550.39c2.29-4.21,2.69-9.05.77-13.55-.08-.2-.05-.38,0-.55-3.16-2.83-6.36-5.61-9.65-8.25.94,6.7.99,13.4.08,20.16,2.89.88,5.82,1.62,8.81,2.18ZM96.99,547.67c.95-7.07.81-14.09-.37-21.11-4.64-3.65-9.41-7.12-14.31-10.39,3.71,8.61,5.38,17.76,6.77,27.05.11.7-.57,1.09-1.08,1,2.95,1.3,5.95,2.46,8.99,3.45ZM87.44,543.67c-1.49-10.04-3.18-19.96-7.67-29.15-3.09-2.01-6.23-3.95-9.41-5.81,5.79,7.66,5,20.1,5.8,29.04.02.21-.07.33-.15.45,3.83,2.16,7.73,4.14,11.71,5.9-.13-.1-.25-.21-.28-.43ZM65.09,506.04c-.21-.13-.3-.31-.34-.49-3.33-1.82-6.7-3.55-10.11-5.2,5.53,9.94,5.5,23.37,14.47,30.73.37-.31.94-.38,1.26.14.31.53.64,1.05.96,1.57.08.12.2.23.21.35.72,1.18,1.44,2.36,2.15,3.54.05.08.01.14.03.22.24.14.48.28.72.41-.82-10.11.48-25.43-9.36-31.28ZM69.93,533.75c-12-7.87-10.3-23.92-18.09-34.75-3-1.4-6.04-2.72-9.11-3.99-.63,9.46,1.83,18.5,7.28,26.28,2.39,1.71,4.72,3.49,7.17,5.14,4.49,3.01,9.02,5.96,13.61,8.73-.29-.47-.58-.94-.86-1.41ZM24.2,488.26c-5.77-1.83-11.64-3.45-17.6-4.83,5.67,5.93,11.55,11.61,17.63,17.08-.57-4.05-.6-8.12-.02-12.25ZM110.3,538.21c1.2,4.21.83,8.53-1.15,12.45,4.69.77,9.53,1.09,14.52.88-4.29-4.65-8.76-9.09-13.37-13.34ZM40.4,549.58c11.58,5.78,27.86,11.99,40.95,12.2,11.01.18,22.98-3.52,34.19-6.7-20.61-1.41-38.42-11.31-56.14-22.79-11.54-7.48-22.43-15.8-32.79-24.75-.39.09-.86-.06-1.01-.55-.04-.15-.06-.3-.11-.45-7-6.1-13.72-12.51-20.18-19.21,3.69,25.11,10.29,49.87,35.09,62.26Z"/>
  </g>
</svg>