<?xml version="1.0" encoding="UTF-8"?>
<svg id="Ebene_2" data-name="Ebene 2" xmlns="http://www.w3.org/2000/svg" viewBox="0 0 871.9 235.87">
  <defs>
    <style>
      .cls-1 {
        fill: #33474d;
        fill-rule: evenodd;
        stroke-width: 0px;
      }
    </style>
  </defs>
  <g id="Layer_1" data-name="Layer 1">
    <path class="cls-1" d="M1.26,173.63c20.52-7.07,41.46-12.81,62.65-17.24-.04-.15-.05-.31-.04-.48-.7-.64-.96-1.7,0-2.46.33-.28.69-.5,1.03-.77,6.45-18.58,17.09-34.91,32.23-47.69,15.35-12.96,34.76-28.03,55.09-30.85,1.32-.19,2.68.76,2.25,2.25-5.16,18-10.96,37.46-26.03,49.8-17.38,14.23-41.49,14.99-59.55,28.02h.65c.57-.29,1.3-.35,1.9-.02,1.32,0,2.65-.01,3.97-.02,27.09-5.01,54.56-7.79,82.17-8.26.13-.55.5-1.02,1.25-1.17,22.86-4.44,44.92-13.33,57.5-33.72-2.57-1.57-5.8-3.63-6.23-6.47-.57-3.74,3.28-8.66,5.83-11.65-2.23,1.63-3.76,3.64-6.28,5.95-2.9,2.66-5.64,3.1-9.45,1.67-5.24-1.97-5.33-4.76-7.19-9.25-2.25-5.45-3.93-7.2-7.21-10.52-1.76-1.78-3.54-2.87-4.37-5.36-3.45-10.45,9.77-13.83,17.25-13.01,10.83,1.17,19.98,7.49,28.1,14.62,7.8-4.51,16.29-6.32,25.28-6.66,5.13-.2,17.81-2.08,21.43,3,1.9,2.66,1.58,7.75,1.96,10.76.51,4.06,2.75,10.44.97,14.4-1.87,4.18-8.94,6.2-14.31,7.36,1.21,1.83,1.79,3.88.59,6.06-1.77,3.24-6.09,2.69-9.16,3.03-2.9.14-5.74.61-8.52,1.4-2.41.8-4.65,1.92-6.73,3.35-1.03.22-1.97.76-3.03.83-4.88.33-11.53-4.55-15.87-7.54-11.11,17.98-29.33,27.57-49.22,32.84,20.92.25,41.44,2.16,61.78,5.1-1.45-.6-1.79-3.01.1-3.41,1.15-.24,2.29-.44,3.44-.68,25.98-10.99,53.16-16.27,81.39-15.6,1.84.05,2.44,2.43.92,3.41-20.5,13.14-43.47,19.52-67.25,19.2,20.79,3.56,41.47,7.92,62.3,12.26.37-.63,1.06-1.06,1.98-.84.29.07.6.13.9.19.29-.36.74-.62,1.33-.64.71-.03,1.41-.12,2.11-.16,16.51-3.9,31.97-8.76,45.38-19.86,10.73-8.89,20.01-18.91,32.09-26.07,1.14-.67,2.85.18,2.76,1.59-.14,2.1-.46,4.07-.8,6.03.4.55.56,1.29.21,1.99-.29.56-.64,1.07-.95,1.61-6.6,27.51-32.71,40.46-59.78,41.29,25.39,4.97,51.01,8.3,76.72,9.95.03-.46.23-.91.6-1.23-.03-.33-.01-.68.16-1.03,25.61-52.22,71.48-91.7,126.85-109.42,1.24-.39,2.77.95,2.25,2.25-10.17,25.55-21.06,52.43-43,70.23-22.67,18.39-52.64,29.79-80.19,39.53,8.94.47,17.9.76,26.86.83-1.43-1.84,1.14-4.44,2.59-2.58.34.43.72.82,1.07,1.24,29.82-13.73,62.82-18.46,95.22-12.41,5.23.97,10.34,2.32,15.38,3.87,6.51-1.19,12.99-2.48,19.46-3.88-.01-.03-.04-.04-.05-.07-8-18.15-7.59-37.63,1.29-55.39.55-1.12,2.05-1.11,2.87-.37,7.55,6.74,9.03,16.95,9.7,26.69,4.74-11.01,8.88-22.24,12.52-33.68-4.39-.22-8.64-.55-12.2-.49-1.01.02-1.81-.86-1.83-1.84-.03-1.56-.06-3.13-.1-4.7-.02-1.01.64-1.56,1.4-1.7.26-4.29,2.12-7.73,5-10.41-2.12-1.44-8.94-.88-11.6-1.37-3.06-.56-5.98-2.55-9.25-2.97-4.67-.61-7.49.37-11.19-2.85-.49-.43-.61-1.17-.47-1.78,2.72-11.63,11.6-18.27,23.34-19.04,14.25-.93,22.92,3.16,29.57,15.8.46.88.15,1.71-.44,2.22.39.97.78,1.94,1.17,2.91,6.68-.19,13.56.96,19.39,3.31.01-.02.01-.05.02-.07,3.02-6.1,1.36-11.52-1.08-17.33-.78-1.85,2.86-.87-1.76-3.76-.92-.57-4.22.39-5.58-.08-3.14-1.1-4.06-3.98-5.65-6.55-1.34-2.78-3.48-4.74-6.42-5.86-2.16,2.02-4.31,4.04-6.47,6.07-.67,1.6-.06,4.16-.76,6.04-.82,2.18-4.35,1.24-3.53-.98,2.18-5.81-1.05-12.95,7.3-14.76,7.58-1.64,10.04,4.81,13.95,9.39,4.32,5.07,7.33,1.03,11.19,4.29,2.05,1.73,1.08,2.63,1.48,4.79,1.46,7.83,4.34,12.52.6,20.34,4.93,2.61,8.75,6.19,10.23,10.75.38,1.15-.62,2.3-1.76,2.31-6.35.07-14.09-.78-19.46,2.15-2.07,1.13-2.57,3.37-5.31,4.46-4.44,1.76-10.19,2.01-15.99,1.85-4.03,12.79-8.75,25.3-14.14,37.56.62-.5,1.23-1,1.88-1.42,7.81-5.1,18.93-3.71,27.76-3.44,12.8.37,25.4,2.06,37.35,5.68,11.74-4.37,23.32-9.12,34.75-14.21-.02-.3-.08-.57-.1-.87-.05-1.58,1.55-2.07,2.66-1.54.2-.08.44-.08.69.03.06.03.12.05.18.08-.07-.16-.06-.31-.02-.5-2.15.42-3.02-2.92-.81-3.54.27-.08.52-.18.8-.26-.98-23.34,10.8-46.27,21.43-66.45,11.86-22.53,27.04-42.77,48.55-56.82,1.19-.78,2.73.25,2.75,1.59.52,30.38,2,57.54-15.44,83.91-8.34,12.62-19.3,23.04-32.01,30.7,26.97-13.79,52.89-29.6,77.53-47.34-2.03-2.08-3.62-4.35-4.25-6.48-1.35-4.56,1.58-9.62,4.48-13.57-1.8-1.76-4.2-2.92-5.3-5.53-1.77-4.2-1.24-10.45-.42-14.67.72-3.74,2.21-7.38,5.57-9.52,3.34-2.13,7.06-1.13,10.58-2.56,3.63-1.48,5.17-3.68,9.3-3.85,3.6-.15,8.46.94,11.41,3.13,2.87,2.13,3.66,5.1,4.44,8.44.44,1.89.79,3.81,1.17,5.72,12.2-1.84,31.02-.34,27.98,16.72-.65,3.64-.87,6.82-.13,10.56.19.94,1,1.69,1.04,2.67.1,2.49-.13,4.47-1.83,6.48-4.21,5.01-12.15,3.9-17.71,2.39.14.64.28,1.27.51,1.88,1.69,4.32,5.95,7.51,1.94,12.2-3.76,4.39-9.83,2.25-13.83-.23-5.51-3.41-8.12-6.2-15.01-5.94-3.3.12-5.14.77-8.51-.29-2.53-.8-5.74-2.7-8.63-5.06-26.75,19.32-55.05,36.32-84.5,50.95,42.28-7.38,84.79,4.83,123.6,23.18,1.48.7.98,2.94-.44,3.35-31.58,9.11-64.81,17.34-97.9,13.06-17.33-2.24-44.95-8.47-49.27-28.32-9.85,4.37-19.82,8.47-29.89,12.3,9.3,3.35,18.17,7.95,26.29,14.27,1.4,1.09.08,2.99-1.3,3.13-18.36,1.88-36.66,2-55.03.02-5.45-.59-10.89-1.29-16.32-1.78-17.81,5.2-35.87,9.59-54.1,13.16,28.01,9.92,54.06,25.74,84.08,29.02,2.06.23,2.47,2.84.48,3.6-36.5,13.99-75.71,19.2-114.58,14.46-30.44-3.7-66.75-11.97-88.24-35.7-25.55-.06-51.09-1.74-76.43-5.11-6.8-.91-13.57-1.97-20.32-3.13,7.9,4.89,14.66,11.17,20.11,18.67-.15-.66.07-1.37.9-1.75,9.85-4.63,23.57-5.38,34.07-2.18,7.12,2.16,1.93,10.96-1.39,16.7,5.57,2.83,11.36,6.66,11.91,12.01.1.98-.92,1.83-1.83,1.83-2.3,0-10.08-1.41-12.14-.03-2.37,1.58-.51,2.18-1.61,3.06-2.44,1.97-1.58,2.06-4.83,3.43-.9-.04-1.78-.11-2.66-.24-2.94-.41-5.88-.13-8.83.85-1.37.41-2.47,1.96-3.86,2.48-5.49,2.03-12.55,3.67-18.44,2.6-6.18-1.12-8.84-5.64-8.76-11.57-7.72-2.72-14.54-6.88-20.42-12.73-.69-.69-.72-1.9,0-2.59,1.78-1.71,2.97-1.09,5.09-1.83,3.89-1.36,5.89-5.48,9.58-7.32,6.43-3.19,13.59-2.04,20.33-.51-6-8.28-13.57-15.08-22.68-19.98-.87-.47-1.03-1.29-.79-2.01-33.03-5.98-65.63-14.18-98.66-20.01,12.45,4.73,23.2,11.92,31.85,24.65.92,1.35-.6,3.09-2.07,2.69-23.21-6.44-49.01-11.11-65.08-30.68-.28-.34-.38-.7-.41-1.06-.23-.23-.36-.5-.45-.78-3.9-.41-7.81-.77-11.74-1.05-35.01-2.55-70.1-1.29-104.69,3.57,45.99.91,92.53,7.09,128.3,38.83.98.87.52,2.81-.81,3.06-54.2,10.14-116.77,8.76-154.16-37.42-23.2,4.53-46.1,10.65-68.53,18.38-2.23.77-3.19-2.77-.97-3.53M195.53,65.85c-2.96,3.64-5.92,7.28-8.88,10.92,1.37,1.07,2.75,2.12,4.14,3.18,1.8,1.5,2.97,2.87,4.42,4.73.62.8.34,2.19.96,2.97.18.23,10.9,7.65,11.69,7.42,1.49-.43,3.68-3.98,5.35-5.08,3.72-2.43,7.99-3.58,12.35-4.3,1.3-.47,2.7-.79,4.19-.97-7.41-7.07-15.57-14.41-25.47-17.38-2.2-.66-6.66-2.23-8.75-1.49ZM242.65,113.37c2.55-.95,5.14-1.4,7.84-1.76,3.59-.48,8.49,1.04,6.95-4.84-1.52-.04-2.27-1.84-1.54-2.88-1.84-1.84-5.06-3.76-6.58-5-4.32-3.53-8.8-6.85-13.37-10.06-1.91-1.34-.08-4.52,1.85-3.16,6.66,4.69,13.36,9.56,19.36,15.08.65.6,1.42,1.27,2.19,2,5.39-1.05,12.73-2.68,13.74-8.09,1.42-7.64-2.72-19.05-10.56-20.54-10.46-1.99-23.48.42-32.91,5.5,1.74,1.6,3.44,3.22,5.1,4.8.55.52.62,1.13.46,1.68.11.97-.45,2.11-1.72,2.23-1.54.14-3.09.3-4.64.5-5.68,1.95-14.53,7.75-14.44,13.42.04,2.2,1.95,4.15,4.03,5.7,1.23-1.01,3.28.28,2.86,1.92.42.27.83.51,1.18.72,6.98,4.28,12.19,5.73,20.18,2.78ZM616.8,76.96c-.31-.78-.05-1.38.43-1.76-5.16-9.09-11.96-13.08-22.8-12.92-6.25.1-12.26,1.05-16.98,5.54-4.46,4.24-7.71,8.91-.18,10.92,2.09.56,4.59-.32,6.78.22,3.22.78,4.73,1.88,8.22,2.26,4.53.51,8.27-.64,11.4,3.19h0c3.93-2.47,8.89-4,14.27-4.59-.38-.96-.77-1.91-1.15-2.86ZM619.93,101.3c4.74-.77,7.86-3.83,11.81-5.68,5.34-2.5,12.08-1.94,18.25-1.77-4.26-6.83-16.22-10.63-27.5-10.53-.64.8-2.11.97-2.95.09-10.57.75-19.79,5.09-20.24,13.84-.05.93-.65,1.47-1.35,1.67.25,4.96,9.26,2.59,13.35,2.52,2.77-.04,5.9.31,8.63-.14ZM757.32,83.92c13.93-20.96,16.36-43.45,15.37-68.12-.36-8.9,1.68-12.86-7.96-5-4.5,3.66-8.69,7.71-12.57,12.02-7.76,8.63-14.32,18.26-20.1,28.31-11.94,20.78-26.08,46.5-25.31,71.25.33-.11.66-.21.99-.32,18.03-20.36,32.45-43.13,43.12-68.25.42-.99,1.88-.13,1.46.86-10.31,24.29-24.15,46.43-41.33,66.28,18.87-7.2,35.02-20.01,46.33-37.03ZM838.29,25.5c-1.98-5.21-6.29-9.53-12.32-8.88-5.01.53-3.29,2.44-6.42,3.59-8.67,3.19-14.54-.21-15.83,13.25-.54,5.59.32,7.58,4.04,12.26.22.28.41.48.57.66,5.39-6.58,15.75-3.76,23.39-3.6,1.74.03,2.2,2.06,1.34,3.09,3.17-.06,6.47.13,9.47,1.02-.05-.12-.12-.2-.14-.33-1.31-6.69-1.69-14.68-4.11-21.05ZM866.79,57.65c-.41-2.28-.88-3.53-.61-5.87.72-6.14,2.82-11.19-2.67-15.85-5.33-4.52-13.47-3.2-19.8-2.15.74,3.93,1.45,7.87,2.21,11.78.2,1.06-.43,1.82-1.22,2.12,1.86.85,3.56,2.03,4.94,3.77,3.29,4.16,2.21,9.14,2.28,13.99.29-.08.6-.11.96,0,6.66,1.85,15.76,2.48,13.9-7.79ZM834.42,73.82c6.13,2.52,4.39,5.17,12.1,3.44,8.96-2.01,2.95-2.38,1.31-8.11-.53-1.88.07-3.61-.12-5.4.59-2.46-.05-4.79-1.9-6.97.07-4.42-1.84-6.55-5.76-6.42-3.31-1.16-6.34-.9-9.76-.75-1.98.09-2.27-2.47-.91-3.36-4.14-.38-9.57-1.25-12.81-.13-2.19.76-4.06,1.94-5.57,3.38.53,1.46-.86,2.74-2.06,2.54-2.59,4.03-2.98,9.2-.32,13.88.25.44.53.81.8,1.19.95-.01,1.68.93,1.68,1.94,6.18,5.61,16.01,1.75,23.34,4.77ZM714.51,123.42c-2.47,1-4.97,1.91-7.52,2.73.02.2.05.4.07.61.23-.07.45-.13.68-.2,2.26-1.05,4.52-2.07,6.77-3.14ZM774.46,159.52c22.9-.92,45.26-6.35,67.24-12.58-41.92-19.17-87.88-30.53-133.13-16.81,27.41,10.93,57.35,10.3,86.35,14,1.06.14,1.08,1.83,0,1.69-29.64-3.79-60.1-3.16-88.04-14.59-.54.58-1.38.82-2.06.59-.34.16-.69.31-1.04.47,4.28,25.79,51.21,28.02,70.68,27.23ZM626.09,152.34c-3.63-.73-7.25-1.52-10.87-2.34-.05,0-.1.01-.15.01-1.71.35-3.42.68-5.12,1.04,4.64.16,9.25.61,13.83,1.35.77-.03,1.55-.03,2.32-.06ZM663.23,153.92c.15,0,.3,0,.46,0-.16-.06-.33-.1-.5-.15.02.05.03.1.04.15ZM665.59,154.98c1.34.2,2.69.42,4.02.66-1.52-.39-3.01-.85-4.51-1.31.22.18.39.39.49.65ZM584.89,158.74c-.32-1.08-.65-2.16-.91-3.23.07,1.12.23,2.25.33,3.38.19-.06.39-.1.58-.15ZM588.98,150.93c.68-4.72.57-9.51-.07-14.34.03,4.78.05,9.56.07,14.34ZM673.75,156.57c-.11-.02-.23-.04-.34-.07.54.33.83.85.81,1.46,1.17-.03,2.33-.06,3.49-.1-1.32-.43-2.64-.84-3.96-1.29ZM584.88,118.65c.24.08.47.19.66.35.17-.24.38-.39.65-.51-.25-.37-.49-.77-.76-1.11-.19.42-.37.84-.55,1.26ZM680.04,154.77h.02s-.01,0-.02,0h0ZM689.74,160.29c.13,0,.25-.02.37-.02-.09-.06-.18-.12-.28-.19-.03.07-.06.14-.1.21ZM592.82,164.75c-.39.64-.9,1.24-1.38,1.85,7.05-1.65,14.08-3.41,21.08-5.31-6.66.07-13.24,1.01-19.7,3.45ZM580.16,147.49c-.03-4.91.12-9.81.59-14.71-.8,4.87-1.02,9.79-.59,14.71ZM592.12,133.49c.69,4.08,1.05,8.16.96,12.2.11-.25.22-.5.34-.76-.06-3.82-.51-7.72-1.3-11.44ZM615.61,141.6c5.36-.33,10.66-.46,15.92-.33-5.57-.44-10.95-.37-15.92.33ZM654.89,145.51c.01.24,0,.43-.07.66.89.31,1.77.62,2.66.93.44-.16.87-.32,1.31-.47-1.29-.39-2.59-.77-3.9-1.13ZM662.86,149.02c1.56.53,3.1,1.11,4.66,1.64,3.21.82,6.4,1.76,9.6,2.75-3.94-1.76-8.23-3.44-12.72-4.98-.51.19-1.02.39-1.53.59ZM525.93,105.25c3.78-7.13,7.08-14.51,10.19-21.95,2.84-6.82,6.48-10.21-2.84-6.78-47.13,17.35-86.26,52.15-110.22,95.98,25.45-21.12,50.9-42.24,76.35-63.37.83-.7,2.03.49,1.19,1.19-26.52,22.01-53.03,44.01-79.55,66.02-.32.62-.64,1.23-.96,1.85,27.58-9.7,58.43-21.17,80.75-40.16,10.6-9.01,18.59-20.58,25.08-32.78ZM460.36,181.4c5.2.17,10.4.38,15.59.65,26.3-.97,52.53-3.65,78.5-8.03-31.33-7.63-64.23-4.79-94.09,7.37ZM549.77,219.39c32.9,2.62,65.69-2,96.74-12.85-28.96-5.17-54.14-20.84-82.09-29.76-.56-.17-1.11-.31-1.67-.49-10.58,1.94-21.21,3.67-31.89,5.05-8.77,1.13-17.57,2-26.39,2.76,34.15,3.05,68.06,8.26,101.62,15.73,1.06.24.61,1.87-.45,1.63-36.74-8.17-73.9-13.67-111.33-16.54-12.49.86-25.01,1.31-37.54,1.39,23.17,23.07,61.9,30.6,93,33.08ZM407.81,202.13c.54-1.4,2.13-4.25,1.24-5.75-.66-1.11-6.78-.92-7.86-1.04-8.04-.81-15.95-.64-23.39,2.85-.7.33-1.35.18-1.86-.16.77,1.11,1.63,2.15,2.35,3.31.08.13.1.25.14.38,7.93-.72,15.64.94,23.3,4.55,1.01.47,2.21,1.01,3.46,1.59.94-1.89,1.88-3.79,2.62-5.74ZM369.68,231.93c5.96,2.77,13.65-4.06,18.43-5.86,4.61-1.73,9.65-2.57,13.86-4.39.93-.4,1.45-1.45,2.5-1.74,1.3-.36,2.82-.18,4.12-.25,3.19-.17,5.77,1.47,4.99-1.38-.54-1.96-3.45-3.94-6.68-5.63,0,.02-.02.05-.03.07-.96,2.06-3.91.39-3.21-1.64-2.26-1.02-4.35-1.85-5.51-2.34-6.97-2.95-14.01-4.13-21.23-3.16-.16.51-.51.95-1.17,1.15-4.61,1.43-9.18,4.36-11.85,8.52-.78,1.86-1.55,3.72-2.34,5.58,2.7,3.69,5.41,7.38,8.12,11.06ZM349.01,206.54c-1.03,1.13-1.68,2.5-3.09,3.24-1.1.58-2.71.51-4.12.69,4.8,4.31,10.15,7.54,16.19,9.76,1.29-6.24,5.43-11.17,10.79-14.33-.38-.92-.14-2.13,1.1-2.51.81-.25,1.62-.42,2.43-.61-8.41-1.95-16.86-3.29-23.3,3.76ZM235.74,157.48c.39-.46.97-.75,1.7-.65-2.63-.69-5.31-1.32-8.04-1.91,2.11.86,4.23,1.7,6.34,2.56ZM254.7,173.26c-.51-.01-.96-.11-1.46-.15,1.62.53,3.24,1.04,4.87,1.51-1.14-.46-2.28-.9-3.41-1.36ZM234.14,164.25c-.96-.43-1.92-.87-2.87-1.31-.06.06-.13.12-.2.17,2.01,1.28,4.08,2.45,6.21,3.53-1.06-.77-2.11-1.57-3.15-2.39ZM268.55,148.24c-1.66.6-3.32,1.1-4.98,1.57,7.98-.77,15.84-2.27,23.49-4.67-6.04,1.43-12.19,2.49-18.5,3.11ZM242.7,149.96c.14-.32.35-.6.73-.78.13-.06.26-.11.39-.16-1.21.21-2.43.46-3.63.69.83.08,1.68.19,2.51.26ZM374.13,149.34s-.07.04-.1.06c.31-.02.61-.05.97-.03.37.02.61.21.88.38,3.1-3.55,6.52-6.82,9.81-10.19-.05-.14-.06-.28-.07-.42-3.22,4.1-6.87,7.38-11.49,10.21ZM328.41,167.46c-.33.04-.65.09-.98.13.36.04.72.11,1.08.16-.04-.1-.07-.19-.1-.29ZM387.7,134.95c1.22-1.86,2.57-3.48,4.13-5.03-1.87.72-3.88,2.15-5.93,3.92.75,0,1.48.46,1.8,1.11ZM353.81,166.02c-1.24.58-2.54,1.02-3.89,1.36,4.25-.68,8.42-1.81,12.46-3.37-2.81.83-5.75,1.48-8.57,2.01ZM342.58,167.84c-1.5.16-3.01.29-4.51.4,2.05,0,4.1-.05,6.13-.2-.52-.02-1.09-.15-1.62-.2ZM361.1,152.03c1.3-.62,2.57-1.27,3.85-1.9,2.81-1.94,5.57-3.94,8.26-6.05,6.11-5.98,11.99-12.09,16.06-16.32-10.4,5.83-18.47,16.8-28.17,24.28ZM147.22,87.88c.86-2.6,3.54-7.41,1.3-9.55-1.84-1.76-15.16,6.13-16.99,7.18-8.01,4.58-15.76,9.96-23.21,15.39-16.22,11.82-28.58,26.5-36.54,44.39,16.23-15.98,39.39-22.83,54.46-40.34.71-.82,1.9.38,1.19,1.19-15.72,18.27-40.26,24.9-56.52,42.43,10.09-6.15,21.28-9.49,32.6-13.59,23.51-8.51,36.01-23.55,43.71-47.1ZM137.22,194.6c13.2,2.95,26.8,3.88,40.3,3.55,6.99-.16,13.98-.7,20.94-1.49,1.83-.21,18.73-1.03,20.79-3.5,2.04-2.43-26.52-17.72-30.05-19.28-11.05-4.88-22.7-8.35-34.52-10.78-20.77-4.28-41.98-5.22-63.16-5.32,11.22,2.51,21.99,6.76,32.95,11.06,19.86,7.78,39.64,11.83,60.73,14.68,1.07.14.61,1.77-.45,1.63-19.29-2.61-37.88-5.94-56.14-12.89-15.64-5.95-30.59-12.55-47.07-14.48-1.99.01-3.98.02-5.97.04-.26.05-.52.11-.78.15,15.99,19.08,38.15,31.19,62.42,36.61Z"/>
  </g>
</svg>