<svg width="58" height="36" viewBox="0 0 58 36" fill="none" xmlns="http://www.w3.org/2000/svg">
<path d="M57.4999 17.6649C57.4999 27.401 49.6072 35.2937 39.8711 35.2937C30.1349 35.2937 22.2422 27.401 22.2422 17.6649C22.2422 7.92871 30.1349 0.0359955 39.8711 0.0359955C49.6072 0.0359955 57.4999 7.92871 57.4999 17.6649ZM25.7744 17.6649C25.7744 25.4502 32.0857 31.7615 39.8711 31.7615C47.6564 31.7615 53.9677 25.4502 53.9677 17.6649C53.9677 9.8795 47.6564 3.56821 39.8711 3.56821C32.0857 3.56821 25.7744 9.8795 25.7744 17.6649Z" fill="#D49191"/>
<path d="M35.7577 17.6649C35.7577 27.401 27.865 35.2937 18.1289 35.2937C8.39271 35.2937 0.5 27.401 0.5 17.6649C0.5 7.92871 8.39271 0.0359955 18.1289 0.0359955C27.865 0.0359955 35.7577 7.92871 35.7577 17.6649ZM4.03221 17.6649C4.03221 25.4502 10.3435 31.7615 18.1289 31.7615C25.9142 31.7615 32.2255 25.4502 32.2255 17.6649C32.2255 9.8795 25.9142 3.56821 18.1289 3.56821C10.3435 3.56821 4.03221 9.8795 4.03221 17.6649Z" fill="#D49191"/>
</svg>
